PathFileType	4	(X/Y/Z)	C:\Users\dbl\Desktop\20210112(1)\20210112\bx_y_5_1802.trc
DataRate	CameraRate	NumFrames	NumMarkers	Units	OrigDataRate	OrigDataStartFrame	OrigNumFrames
50.00	50.00	       5	43	mm	50.00	299	       478
Frame#	Time	Top.Head			R.Acromium			L.Acromium			Sternum			R.ASIS			L.ASIS			V.Sacral			R.Thigh.Upper			R.Thigh.Front			R.Thigh.Rear			R.Knee.Lat			R.Knee.Med			R.Shank.Upper			R.Shank.Front			R.Shank.Rear			R.Ankle.Lat			R.Midfoot.Lat			R.Toe.Lat			R.Toe.Tip			R.Toe.Med			R.Ankle.Med			R.Midfoot.Sup			R.Heel			L.Thigh.Upper			L.Thigh.Front			L.Thigh.Rear			L.Knee.Lat			L.Knee.Med			L.Shank.Upper			L.Shank.Front			L.Shank.Rear			L.Ankle.Lat			L.Midfoot.Lat			L.Toe.Lat			L.Toe.Tip			L.Toe.Med			L.Ankle.Med			L.Midfoot.Sup			L.Heel			origin1 front left			origin2 front right			origin 3 back right			origin 4 back leftt			
		X1	Y1	Z1	X2	Y2	Z2	X3	Y3	Z3	X4	Y4	Z4	X5	Y5	Z5	X6	Y6	Z6	X7	Y7	Z7	X8	Y8	Z8	X9	Y9	Z9	X10	Y10	Z10	X11	Y11	Z11	X12	Y12	Z12	X13	Y13	Z13	X14	Y14	Z14	X15	Y15	Z15	X16	Y16	Z16	X17	Y17	Z17	X18	Y18	Z18	X19	Y19	Z19	X20	Y20	Z20	X21	Y21	Z21	X22	Y22	Z22	X23	Y23	Z23	X24	Y24	Z24	X25	Y25	Z25	X26	Y26	Z26	X27	Y27	Z27	X28	Y28	Z28	X29	Y29	Z29	X30	Y30	Z30	X31	Y31	Z31	X32	Y32	Z32	X33	Y33	Z33	X34	Y34	Z34	X35	Y35	Z35	X36	Y36	Z36	X37	Y37	Z37	X38	Y38	Z38	X39	Y39	Z39	X40	Y40	Z40	X41	Y41	Z41	X42	Y42	Z42	X43	Y43	Z43	

299	5.960	-294.91562	136.61467	1166.97314	-456.91077	-33.57538	942.77271	-476.77435	288.36926	943.46149	-498.99756	108.74493	1057.67371	-841.43585	5.89174	745.10303	-839.70563	197.36667	810.10596	-1040.72620	115.17750	743.94208	-812.93597	-81.43795	666.34821	-733.50415	-25.56431	706.19165	-687.26556	-91.36309	594.12799	-600.76465	-80.53933	551.84064	-555.28076	30.42429	544.47607	-585.66272	-77.19279	514.01654	-543.02850	-28.48017	467.00748	-654.19983	-68.59335	455.28540	-755.99579	-2.60281	207.94591	-665.74579	-67.45108	163.10338	-625.95374	-80.19026	159.60484	-559.33026	-45.36876	160.87346	-600.68945	16.93462	165.87260	-700.39832	78.33556	210.38039	-670.72028	54.92182	155.42503	-787.65601	64.22997	179.34668	-790.66431	304.42886	670.91394	-726.92847	236.57242	702.06494	-699.36786	313.54816	590.62714	-575.55579	301.61307	555.71771	-527.45361	185.92670	534.66339	-567.19788	293.09552	514.94287	-516.58551	245.25096	475.40216	-627.40869	289.43176	462.19470	-759.95807	220.73225	206.07649	-667.11438	298.30319	160.65674	-630.34808	307.41690	161.44328	-560.40906	264.48856	164.01070	-592.37720	223.87706	171.72246	-697.71851	150.17651	207.52441	-672.90930	173.96844	152.36292	-788.97375	165.75876	189.96286	-528.32428	304.30994	146.43974	-517.44159	-72.69783	142.73523	-875.73810	-78.08673	140.14159	-882.53046	296.08011	144.60963	
300	5.980	-293.63358	137.91222	1162.81738	-454.58844	-32.07195	937.83917	-474.78189	288.98486	939.36469	-497.56839	108.98851	1055.46716	-841.50964	5.77947	744.30627	-840.19318	197.39330	808.72131	-1040.76746	115.06709	742.81409	-812.79755	-81.42063	665.70190	-733.64343	-25.19264	705.43060	-686.85925	-91.57581	593.81433	-600.33398	-80.63372	551.52332	-554.79810	30.36020	544.40265	-585.17664	-77.36534	513.92249	-542.61694	-28.55786	466.80750	-653.83905	-68.87163	455.12531	-755.92542	-2.54403	208.18420	-665.68811	-67.44978	163.21785	-625.95172	-80.15894	159.64362	-559.29645	-45.36455	160.90422	-600.74158	16.82677	166.02136	-700.32489	78.37354	210.40080	-670.72760	54.90176	155.46205	-787.61322	64.33977	179.55962	-791.27393	304.49893	670.21777	-727.69171	237.27859	701.76532	-699.62244	314.11047	590.14258	-574.73828	301.95584	554.86462	-527.36646	186.78030	534.62915	-567.20496	293.78088	514.83234	-517.21948	246.73941	474.39798	-627.61047	289.72937	461.77780	-759.87787	220.74507	206.07869	-667.13190	298.39499	160.68857	-630.34265	307.41199	161.39580	-560.44434	264.51831	163.95184	-592.41132	223.97874	171.87106	-697.65021	150.40085	207.53046	-672.93976	174.03716	152.35666	-788.98230	165.71411	190.04138	-528.32031	304.32104	146.46500	-517.40387	-72.77322	142.79723	-875.74316	-78.10634	140.19159	-882.55750	296.07544	144.58919	
301	6.000	-292.48917	139.20219	1159.01477	-452.45880	-30.66756	933.06421	-472.82813	289.62225	935.53210	-496.17203	109.21204	1053.42517	-841.55237	5.70246	743.64581	-840.60571	197.42212	807.49115	-1040.72437	114.82303	741.81860	-812.51648	-81.35405	665.05518	-733.65729	-24.64530	704.65717	-686.45020	-91.66116	593.47089	-599.72681	-80.63969	551.23541	-554.27795	30.53964	544.30957	-584.67450	-77.34946	513.80597	-542.19263	-28.48348	466.62158	-653.37000	-69.01736	455.02325	-755.91888	-2.40665	208.39549	-665.63806	-67.40783	163.30589	-625.92987	-80.10173	159.66930	-559.26654	-45.37439	160.94641	-600.76776	16.77822	166.06763	-700.24677	78.53918	210.38005	-670.76135	54.92175	155.44521	-787.58960	64.46237	179.71788	-791.90503	304.51413	669.55975	-728.31958	238.01114	701.41632	-699.91876	314.77103	589.77081	-574.02795	302.24777	554.04822	-527.20691	187.76648	534.65771	-567.21130	294.64087	514.78729	-517.64185	248.11052	473.57138	-627.76721	290.16412	461.39322	-759.85840	220.78566	206.08302	-667.17413	298.48398	160.66292	-630.34900	307.42609	161.32903	-560.49396	264.57172	163.88069	-592.46326	224.04704	171.92746	-697.45471	150.77283	207.53491	-672.97980	174.13495	152.40729	-788.98065	165.67734	190.10915	-528.30573	304.27563	146.44966	-517.38770	-72.79548	142.86081	-875.82355	-78.28265	140.45242	-882.57257	296.05786	144.55783	
302	6.020	-291.46393	140.43271	1155.49390	-450.47208	-29.42542	928.46887	-470.87604	290.24265	931.88672	-494.80887	109.41575	1051.54688	-841.55066	5.69650	743.05066	-840.94366	197.45303	806.41333	-1040.56091	114.49289	740.93744	-812.06982	-81.19878	664.41431	-733.52136	-24.02580	703.92859	-685.95795	-91.51246	593.01477	-598.99597	-80.49157	551.04712	-553.78082	30.92493	544.13275	-584.11072	-77.06612	513.57465	-541.70001	-28.17552	466.42914	-652.82996	-68.92621	454.97546	-755.98431	-2.18062	208.51389	-665.61908	-67.31784	163.37007	-625.88812	-80.01754	159.69516	-559.25232	-45.36200	160.97667	-600.75745	16.82246	165.98001	-700.20154	78.75886	210.32428	-670.81146	54.97944	155.36589	-787.60675	64.57008	179.74651	-792.50464	304.62695	669.05646	-728.78735	238.53973	700.91577	-700.26245	315.44690	589.46246	-573.42212	302.48981	553.26910	-527.01825	188.72050	534.70911	-567.26196	295.53467	514.78497	-517.68323	249.13220	473.18915	-627.79944	290.77704	461.13791	-759.88538	220.83633	206.07048	-667.22607	298.55008	160.59436	-630.37177	307.46814	161.22844	-560.56689	264.65714	163.84521	-592.52863	224.10680	171.92120	-697.09546	151.23572	207.57289	-672.99615	174.20493	152.52779	-788.96838	165.65440	190.15456	-528.28088	304.22977	146.41054	-517.38708	-72.78072	142.90678	-875.91675	-78.55501	140.81001	-882.58124	296.06467	144.54929	
303	6.040	-290.51822	141.55513	1152.21790	-448.60284	-28.37490	924.13831	-468.91803	290.81256	928.39502	-493.47940	109.59982	1049.83130	-841.47668	5.79772	742.45215	-841.20734	197.48596	805.48590	-1040.30542	114.13336	740.19470	-811.50500	-80.98160	663.83362	-733.23474	-23.50722	703.33441	-685.30103	-91.14042	592.49048	-598.24390	-80.09753	550.91284	-553.35315	31.42701	543.85577	-583.47827	-76.51731	513.24695	-541.10956	-27.66133	466.21310	-652.28772	-68.57820	454.95380	-756.05774	-1.91650	208.57033	-665.61908	-67.20339	163.43903	-625.83038	-79.89063	159.74222	-559.26489	-45.31471	160.99709	-600.71637	16.93864	165.81845	-700.19244	78.95855	210.25537	-670.83356	55.04315	155.25676	-787.63727	64.66557	179.66360	-793.00238	304.82004	668.74976	-729.13788	238.86079	700.37299	-700.60101	316.02090	589.22394	-572.91785	302.68292	552.52795	-526.85864	189.51903	534.73206	-567.38037	296.29211	514.80676	-517.44067	249.81923	473.20294	-627.71960	291.47659	461.05444	-759.93304	220.89589	206.05330	-667.28119	298.59976	160.49710	-630.40582	307.53403	161.09140	-560.65094	264.74786	163.86501	-592.59808	224.17319	171.91553	-696.59479	151.70244	207.66228	-673.00562	174.25894	152.67064	-788.95532	165.64786	190.16919	-528.26776	304.22104	146.38493	-517.38995	-72.75195	142.93463	-875.97058	-78.79120	141.09019	-882.58008	296.10336	144.57703	
